<svg width="174" height="149" viewBox="0 0 174 149" fill="none" xmlns="http://www.w3.org/2000/svg">
<g filter="url(#filter0_d)">
<path d="M168 83C168 113.652 131.735 138.5 87 138.5C42.2649 138.5 6 113.652 6 83C6 55.7396 34.684 33.0696 72.5 28.3868C77.2045 27.8042 72.5 -1.5 87 27.5C92.5471 27.5 101.391 15.9823 106.5 17.1417C108.918 17.6903 110.5 21.0787 110.5 29.8718C143.775 36.7726 168 57.9479 168 83Z" fill="#BF9F79" fill-opacity="0.74"/>
<path d="M87 139.5C109.543 139.5 129.996 133.241 144.841 123.069C159.681 112.901 169 98.7516 169 83C169 57.4447 144.559 36.1717 111.495 29.06C111.449 25.0474 111.057 22.1256 110.352 20.0878C109.594 17.9001 108.4 16.5474 106.721 16.1664C105.058 15.789 103.259 16.4618 101.588 17.3989C99.8799 18.3573 98.0654 19.7343 96.3031 21.0945C96.1497 21.2129 95.9966 21.3313 95.8438 21.4493C94.2163 22.7074 92.634 23.9305 91.1364 24.8719C89.7587 25.7379 88.573 26.2848 87.5907 26.4483C85.9027 23.1051 84.4706 20.5492 83.248 18.6473C81.965 16.6513 80.8686 15.3046 79.899 14.5379C79.4098 14.151 78.8956 13.8655 78.3555 13.7574C77.7848 13.6433 77.239 13.7395 76.7633 14.027C76.3147 14.2981 75.9864 14.7032 75.7398 15.1198C75.4905 15.5408 75.2914 16.03 75.1255 16.5413C74.7948 17.5605 74.5555 18.7984 74.3461 20.037C74.2663 20.509 74.1912 20.978 74.1171 21.4416C73.9914 22.2273 73.8682 22.9972 73.7285 23.7394C73.5067 24.9185 73.2641 25.902 72.9628 26.5914C72.6346 27.3422 72.3954 27.3921 72.3771 27.3944C53.3135 29.755 36.5044 36.6539 24.4387 46.4505C12.3717 56.248 5 68.9939 5 83C5 98.7516 14.3188 112.901 29.1591 123.069C44.0041 133.241 64.457 139.5 87 139.5Z" stroke="black" stroke-width="2"/>
</g>
<path d="M81.2343 75.6432L81.9319 76.4737L82.7031 75.711C93.8654 64.6728 103.484 59.7997 111.629 58.8051C119.74 57.8147 126.55 60.652 132.168 65.3895C137.805 70.1434 142.215 76.7927 145.439 83.318C148.634 89.7833 150.63 96.0588 151.5 100.105C151.456 111.04 144.596 120.347 132.984 126.976C121.333 133.628 105.016 137.5 86.5 137.5C67.9842 137.5 52.0482 133.628 40.7782 126.983C29.5187 120.345 23 111.004 23 100C23 94.458 24.7288 87.8394 27.8403 81.5971C30.9501 75.3582 35.4029 69.5719 40.777 65.6504C46.1389 61.7376 52.3871 59.6984 59.1687 60.8488C65.9646 62.0016 73.4573 66.3849 81.2343 75.6432Z" fill="#F2E5D9" stroke="black" stroke-width="2"/>
<ellipse cx="87" cy="111.5" rx="17" ry="9" fill="black"/>
<path d="M55.5463 112.977C62.1307 110.272 65.8922 107.554 67.9778 104.553C70.0825 101.526 70.3772 98.3549 70.3772 95.0522C70.3772 93.919 69.8624 92.9179 69.1048 92.0672C68.3512 91.221 67.3089 90.4657 66.1116 89.7893C63.7152 88.4357 60.5061 87.2931 57.1697 86.371C50.5023 84.5283 43.0469 83.4926 39.9293 83.4927C36.015 83.4927 32.9588 84.661 30.6582 86.5913C28.371 88.5102 26.898 91.1245 26.0299 93.9183C24.3051 99.4688 24.8958 105.958 26.5043 109.873C28.2249 114.06 32.3464 116.155 37.4766 116.554C42.6078 116.953 48.9427 115.691 55.5463 112.977Z" fill="#BFA78A" stroke="black" stroke-width="2"/>
<path d="M31.9954 110.483C31.015 106.605 36.808 96.0637 47.4746 94.1922C60.8079 91.8528 63.7328 97.3021 64.9583 102.15" stroke="black" stroke-width="2"/>
<path d="M119.383 112.485C112.799 109.779 109.037 107.061 106.952 104.061C104.847 101.033 104.552 97.8622 104.552 94.5595C104.552 93.4263 105.067 92.4251 105.825 91.5744C106.578 90.7283 107.62 89.9729 108.818 89.2966C111.214 87.943 114.423 86.8003 117.76 85.8782C124.427 84.0356 131.882 82.9999 135 82.9999C138.914 83 141.971 84.1683 144.271 86.0985C146.558 88.0174 148.031 90.6318 148.899 93.4255C150.624 98.976 150.033 105.465 148.425 109.38C146.704 113.567 142.583 115.663 137.453 116.062C132.322 116.461 125.987 115.198 119.383 112.485Z" fill="#BFA78A" stroke="black" stroke-width="2"/>
<path d="M143.963 109.517C144.943 105.639 139.15 95.0975 128.484 93.226C115.15 90.8866 112.226 96.3359 111 101.183" stroke="black" stroke-width="2"/>
<path d="M56.5 115C63.1827 126.95 75.5 134 86 122.5C98.5 132 112.927 126.883 113.5 115" stroke="black"/>
<g filter="url(#filter1_b)">
<ellipse cx="46.7325" cy="121.496" rx="5.55352" ry="4" transform="rotate(-25.4039 46.7325 121.496)" fill="#E4A683" fill-opacity="0.55"/>
</g>
<g filter="url(#filter2_b)">
<ellipse rx="5.55352" ry="4" transform="matrix(-0.903306 -0.428997 -0.428997 0.903306 125.733 120.496)" fill="#E4A683" fill-opacity="0.55"/>
</g>
<path d="M88 26.5C89.3333 12.5 84.5 9 72.5 1" stroke="black"/>
<path d="M89.6946 26.5C87.9606 21.6538 88.3941 11.2692 104 8.5" stroke="black"/>
<defs>
<filter id="filter0_d" x="0" y="12.7106" width="174" height="135.789" filterUnits="userSpaceOnUse" color-interpolation-filters="sRGB">
<feFlood flood-opacity="0" result="BackgroundImageFix"/>
<feColorMatrix in="SourceAlpha" type="matrix" values="0 0 0 0 0 0 0 0 0 0 0 0 0 0 0 0 0 0 127 0"/>
<feOffset dy="4"/>
<feGaussianBlur stdDeviation="2"/>
<feColorMatrix type="matrix" values="0 0 0 0 0 0 0 0 0 0 0 0 0 0 0 0 0 0 0.25 0"/>
<feBlend mode="normal" in2="BackgroundImageFix" result="effect1_dropShadow"/>
<feBlend mode="normal" in="SourceGraphic" in2="effect1_dropShadow" result="shape"/>
</filter>
<filter id="filter1_b" x="37.4292" y="113.167" width="18.6067" height="16.6569" filterUnits="userSpaceOnUse" color-interpolation-filters="sRGB">
<feFlood flood-opacity="0" result="BackgroundImageFix"/>
<feGaussianBlur in="BackgroundImage" stdDeviation="2"/>
<feComposite in2="SourceAlpha" operator="in" result="effect1_backgroundBlur"/>
<feBlend mode="normal" in="SourceGraphic" in2="effect1_backgroundBlur" result="shape"/>
</filter>
<filter id="filter2_b" x="116.429" y="112.167" width="18.6067" height="16.6569" filterUnits="userSpaceOnUse" color-interpolation-filters="sRGB">
<feFlood flood-opacity="0" result="BackgroundImageFix"/>
<feGaussianBlur in="BackgroundImage" stdDeviation="2"/>
<feComposite in2="SourceAlpha" operator="in" result="effect1_backgroundBlur"/>
<feBlend mode="normal" in="SourceGraphic" in2="effect1_backgroundBlur" result="shape"/>
</filter>
</defs>
</svg>
